<svg xmlns="http://www.w3.org/2000/svg" width="800" height="600" viewBox="0 0 800 600">
  <!-- Game Background Pattern -->
  <defs>
    <!-- Candy Pattern -->
    <pattern id="candyPattern" patternUnits="userSpaceOnUse" width="100" height="100" patternTransform="rotate(45)">
      <circle cx="50" cy="50" r="8" fill="#FF5555" opacity="0.1" />
      <circle cx="0" cy="0" r="8" fill="#FF9933" opacity="0.1" />
      <circle cx="0" cy="100" r="8" fill="#FFDD44" opacity="0.1" />
      <circle cx="100" cy="0" r="8" fill="#44CC44" opacity="0.1" />
      <circle cx="100" cy="100" r="8" fill="#3399FF" opacity="0.1" />
    </pattern>
    
    <!-- Swirl Pattern -->
    <pattern id="swirlPattern" patternUnits="userSpaceOnUse" width="100" height="100">
      <path d="M25,50 Q50,25 75,50 T125,50" stroke="#FFFFFF" stroke-width="2" fill="none" opacity="0.05" />
      <path d="M25,60 Q50,35 75,60 T125,60" stroke="#FF9933" stroke-width="2" fill="none" opacity="0.05" />
      <path d="M25,70 Q50,45 75,70 T125,70" stroke="#9955FF" stroke-width="2" fill="none" opacity="0.05" />
      <path d="M25,80 Q50,55 75,80 T125,80" stroke="#44CC44" stroke-width="2" fill="none" opacity="0.05" />
    </pattern>
    
    <!-- Gradient Background -->
    <linearGradient id="bgGradient" x1="0%" y1="0%" x2="100%" y2="100%">
      <stop offset="0%" stop-color="#6a11cb" />
      <stop offset="100%" stop-color="#2575fc" />
    </linearGradient>
    
    <!-- Candy Board Gradient -->
    <linearGradient id="boardGradient" x1="0%" y1="0%" x2="100%" y2="100%">
      <stop offset="0%" stop-color="#FFC0CB" stop-opacity="0.7" />
      <stop offset="100%" stop-color="#E6E6FA" stop-opacity="0.7" />
    </linearGradient>
  </defs>
  
  <!-- Background -->
  <rect width="800" height="600" fill="url(#bgGradient)" />
  <rect width="800" height="600" fill="url(#candyPattern)" />
  <rect width="800" height="600" fill="url(#swirlPattern)" />
  
  <!-- Game Board Background -->
  <rect x="200" y="100" width="400" height="400" rx="20" ry="20" fill="url(#boardGradient)" stroke="#FFFFFF" stroke-width="5" />
  
  <!-- Grid Lines (Subtle) -->
  <g stroke="#FFFFFF" stroke-width="1" opacity="0.1">
    <!-- Vertical lines -->
    <line x1="250" y1="100" x2="250" y2="500" />
    <line x1="300" y1="100" x2="300" y2="500" />
    <line x1="350" y1="100" x2="350" y2="500" />
    <line x1="400" y1="100" x2="400" y2="500" />
    <line x1="450" y1="100" x2="450" y2="500" />
    <line x1="500" y1="100" x2="500" y2="500" />
    <line x1="550" y1="100" x2="550" y2="500" />
    
    <!-- Horizontal lines -->
    <line x1="200" y1="150" x2="600" y2="150" />
    <line x1="200" y1="200" x2="600" y2="200" />
    <line x1="200" y1="250" x2="600" y2="250" />
    <line x1="200" y1="300" x2="600" y2="300" />
    <line x1="200" y1="350" x2="600" y2="350" />
    <line x1="200" y1="400" x2="600" y2="400" />
    <line x1="200" y1="450" x2="600" y2="450" />
  </g>
  
  <!-- Decorative Elements -->
  <circle cx="100" cy="150" r="30" fill="#FF5555" opacity="0.6" />
  <circle cx="700" cy="150" r="30" fill="#FFDD44" opacity="0.6" />
  <circle cx="100" cy="450" r="30" fill="#44CC44" opacity="0.6" />
  <circle cx="700" cy="450" r="30" fill="#9955FF" opacity="0.6" />
  
  <!-- Title Banner -->
  <rect x="250" y="30" width="300" height="50" rx="10" ry="10" fill="#FFFFFF" opacity="0.8" />
</svg>
