<svg xmlns="http://www.w3.org/2000/svg" width="400" height="400" viewBox="0 0 400 400">
  <!-- Red Candy -->
  <circle cx="100" cy="100" r="40" fill="#FF5555" stroke="#FF7777" stroke-width="3" />
  <circle cx="100" cy="100" r="20" fill="#FF7777" opacity="0.3" />
  
  <!-- Orange Candy -->
  <circle cx="200" cy="100" r="40" fill="#FF9933" stroke="#FFBB55" stroke-width="3" />
  <circle cx="200" cy="100" r="20" fill="#FFBB55" opacity="0.3" />
  
  <!-- Yellow Candy -->
  <circle cx="300" cy="100" r="40" fill="#FFDD44" stroke="#FFEE66" stroke-width="3" />
  <circle cx="300" cy="100" r="20" fill="#FFEE66" opacity="0.3" />
  
  <!-- Green Candy -->
  <circle cx="100" cy="200" r="40" fill="#44CC44" stroke="#66DD66" stroke-width="3" />
  <circle cx="100" cy="200" r="20" fill="#66DD66" opacity="0.3" />
  
  <!-- Blue Candy -->
  <circle cx="200" cy="200" r="40" fill="#3399FF" stroke="#55BBFF" stroke-width="3" />
  <circle cx="200" cy="200" r="20" fill="#55BBFF" opacity="0.3" />
  
  <!-- Purple Candy -->
  <circle cx="300" cy="200" r="40" fill="#9955FF" stroke="#BB77FF" stroke-width="3" />
  <circle cx="300" cy="200" r="20" fill="#BB77FF" opacity="0.3" />
  
  <!-- Striped Candy (Horizontal) -->
  <circle cx="100" cy="300" r="40" fill="#FF5555" stroke="#FFFFFF" stroke-width="3" />
  <line x1="60" y1="290" x2="140" y2="290" stroke="white" stroke-width="4" />
  <line x1="60" y1="300" x2="140" y2="300" stroke="white" stroke-width="4" />
  <line x1="60" y1="310" x2="140" y2="310" stroke="white" stroke-width="4" />
  
  <!-- Striped Candy (Vertical) -->
  <circle cx="200" cy="300" r="40" fill="#3399FF" stroke="#FFFFFF" stroke-width="3" />
  <line x1="190" y1="260" x2="190" y2="340" stroke="white" stroke-width="4" />
  <line x1="200" y1="260" x2="200" y2="340" stroke="white" stroke-width="4" />
  <line x1="210" y1="260" x2="210" y2="340" stroke="white" stroke-width="4" />
  
  <!-- Color Bomb -->
  <circle cx="300" cy="300" r="40" fill="#000000" stroke="#FFFFFF" stroke-width="3" />
  <circle cx="300" cy="300" r="32" fill="#333333" />
  <circle cx="300" cy="300" r="25" fill="#666666" />
  <circle cx="300" cy="300" r="15" fill="#FFFFFF" />
  <circle cx="300" cy="300" r="7" fill="#000000" />
</svg>
